<svg xmlns="http://www.w3.org/2000/svg" version="1.1" xmlns:xlink="http://www.w3.org/1999/xlink" xmlns:svgjs="http://svgjs.dev/svgjs" viewBox="0 0 6.705584006954634 5.391088721638743"><g transform="matrix(0.8424701901579489,0,0,0.8424701901579489,3.3594632393147568,4.699794701131981)"><rect width="7.713640067670749" height="7.713640067670749" x="-3.8647386948341556" y="-6.235836364296689" fill="#ffffff"></rect><g transform="matrix(1,0,0,1,0,0)"><path d=" M -2.526520730935622 -0.5585960950895924 L -2.4235511118354003 -0.32859336131811023 L -2.465535737841306 -0.30979731973632374 L -2.692314065621556 -0.8163509595901832 L -2.6503294396156507 -0.8351470011719697 L -2.547359820515429 -0.6051442674004875 L -1.9504479638227727 -0.8723749455415388 L -1.929608874242966 -0.8258267732306437 L -2.526520730935622 -0.5585960950895924 M -2.839886549553834 -1.7275817453466402 L -2.14317803252519 -1.795384712094032 L -2.138238102090737 -1.744624520139088 L -2.469672296620078 -1.712369680243543 L -2.424341170280393 -1.2465702717158211 L -2.0929069757510526 -1.2788251116113662 L -2.0879670453165997 -1.2280649196564222 L -2.7846755623452433 -1.1602619529090303 L -2.789615492779696 -1.2110221448639744 L -2.4691295749465203 -1.2422115095677746 L -2.514460701286205 -1.7080109180954963 L -2.834946619119381 -1.6768215533916964 L -2.839886549553834 -1.7275817453466402 M -2.035661872682352 -2.5207165116954924 L -1.991112939347769 -2.5092538532450774 L -2.111470853077127 -2.041490053231955 L -2.7893894038207825 -2.2159218122600097 L -2.6727693134991686 -2.669158786185768 L -2.6282203801645854 -2.657696127735353 L -2.7321318708998694 -2.2538503625066326 L -2.464838270892371 -2.185074411804142 L -2.371891062153136 -2.5463081538432615 L -2.328310583891044 -2.5350946836200294 L -2.421257792630279 -2.17386094158091 L -2.1433111868253802 -2.1023439203794076 L -2.035661872682352 -2.5207165116954924 M -1.6660664387249398 -3.5047324830884814 Q -1.6061948355894342 -3.50553319401292 -1.5514535439003911 -3.4587636421205286 Q -1.4837872250069908 -3.4009512793646555 -1.4895155426727045 -3.320352356439342 Q -1.4952438603384182 -3.239753433514028 -1.5783897303693366 -3.142435581622396 L -1.7810577885697003 -2.9052233176365427 L -2.3132647911020627 -3.359927294368128 L -2.12358827509403 -3.5819336439959137 Q -2.0495364845977435 -3.6686073558368983 -1.9729345872545856 -3.6866807983265932 Q -1.8963326899114277 -3.7047542408162877 -1.8309472581717374 -3.648890609389264 Q -1.785329515097535 -3.6099159828122716 -1.774619069616418 -3.5593340062040366 Q -1.763908624135301 -3.5087520295958017 -1.7853004651323339 -3.4560036728559216 Q -1.7259380418604453 -3.503931772164043 -1.6660664387249398 -3.5047324830884814 M -2.2466833469238705 -3.370120983158072 L -2.0345608416288288 -3.1888889695750544 L -1.8793119124304731 -3.370599646153961 Q -1.8195508183457505 -3.440546852201072 -1.8143872494053013 -3.5012414776286764 Q -1.8092236804648518 -3.561936103056281 -1.8616840850001846 -3.6067569236198227 Q -1.9133841938176142 -3.650928167073748 -1.972528758729203 -3.636353516428919 Q -2.031673323640792 -3.621778865784089 -2.091434417725515 -3.551831659736979 L -2.2466833469238705 -3.370120983158072 M -1.538473576506898 -3.311542650252983 Q -1.531361276237599 -3.3745181628342977 -1.5876231593624488 -3.4225868689459227 Q -1.6438850424872984 -3.470655575057547 -1.7045981908687855 -3.4534752487041995 Q -1.7653113392502724 -3.4362949223508514 -1.8315682044311605 -3.3587447591247073 L -2.00110783004108 -3.160307576751926 L -1.7813823675670049 -2.972579792072743 L -1.6118427419570853 -3.171016974445524 Q -1.545585876776197 -3.2485671376716683 -1.538473576506898 -3.311542650252983 M -1.2358388700020415 -3.546520296818821 Q -1.3372674817308385 -3.5788233419193833 -1.4082647622301179 -3.7086824431087364 L -1.6015884381842367 -4.062285265941907 L -1.5568396938554732 -4.086750545032875 L -1.3644754406108042 -3.734902574918479 Q -1.3025926758512971 -3.621714574557489 -1.2201229939450422 -3.5938622574854544 Q -1.1376533120387875 -3.56600994041342 -1.0393815597873852 -3.6197376121426044 Q -0.9419872338953703 -3.6729855725170637 -0.9209206053938976 -3.7574438294466317 Q -0.899853976892425 -3.8419020863761997 -0.961736741651932 -3.95509008673719 L -1.154100994896601 -4.306938056851586 L -1.1093522505678375 -4.331403335942554 L -0.9160285746137187 -3.9778005131093828 Q -0.8450312941144393 -3.8479414119200297 -0.8730230703953016 -3.7448809419975513 Q -0.9010148466761638 -3.6418204720750724 -1.0177125524747042 -3.5780188618966657 Q -1.1344102582732445 -3.5142172517182595 -1.2358388700020415 -3.546520296818821 M -0.06047763666606942 -3.8567573693633785 L -0.2594161857840028 -4.0642867737253905 Q -0.29531139817604474 -4.054013812743756 -0.325988670461429 -4.049552314662574 L -0.5239065561735852 -4.020768456074297 L -0.4909490380900092 -3.794152476933878 L -0.5414180989466091 -3.786812592993868 L -0.6421616040055751 -4.479525192986415 L -0.393774657436819 -4.515648935514701 Q -0.26314885286679585 -4.534646282182964 -0.179934689915901 -4.483590889868518 Q -0.09672052696500621 -4.432535497554072 -0.08074548544851301 -4.322691070983826 Q -0.0688001841343785 -4.240555148413281 -0.10272629479702378 -4.178526775749589 Q -0.13665240545966895 -4.116498403085895 -0.21151982657831891 -4.082368222086629 L -0.003081449809544057 -3.865104688353979 L -0.06047763666606942 -3.8567573693633785 M -0.3324650386437911 -4.0940838389478085 Q -0.22163102264498363 -4.110202799757243 -0.17036925136049585 -4.167678714754543 Q -0.11910748007600802 -4.225154629751843 -0.13220413573367362 -4.315207267750874 Q -0.14530079139133922 -4.405259905749905 -0.21081057267702363 -4.4457533441801225 Q -0.27632035396270804 -4.48624678261034 -0.38715436996151553 -4.470127821800905 L -0.5850722556736717 -4.4413439632126295 L -0.5303829243559472 -4.065299980359533 L -0.3324650386437911 -4.0940838389478085 M 0.7381079546922059 -4.0891731716531785 L 0.7860641633440266 -4.079113248604614 L 0.7322743707170092 -3.822694337037736 Q 0.678220856183936 -3.7890756284572022 0.6093941235959516 -3.7800130194916735 Q 0.5405673910079671 -3.7709504105261447 0.4691224270981118 -3.7859376428229856 Q 0.3673378209799617 -3.807289316232183 0.295060536037246 -3.8694523605697113 Q 0.2227832510945303 -3.931615404907239 0.1929247583592696 -4.020641920123653 Q 0.16306626562400894 -4.109668435340067 0.18380202537717213 -4.208516947050963 Q 0.20453778513033535 -4.307365458761859 0.26765561529146176 -4.376888041537178 Q 0.3307734454525882 -4.446410624312499 0.42193874918036345 -4.474287808464103 Q 0.5131040529081388 -4.5021649926157075 0.6158673571620403 -4.480608014654498 Q 0.6912271136149014 -4.464799564149612 0.7493231818465873 -4.427579316218958 Q 0.8074192500782732 -4.390359068288305 0.8427900503782983 -4.334916246515458 L 0.8044913552658606 -4.308210255564277 Q 0.7704620375813038 -4.360306373825847 0.7211264279470747 -4.3905800855576285 Q 0.6717908183128457 -4.420853797289409 0.6071967413532504 -4.434403897722169 Q 0.5191139091356206 -4.452881307403206 0.43994611221318025 -4.428617961993983 Q 0.36077831529073995 -4.40435461658476 0.30617772080811884 -4.3437738846467555 Q 0.2515771263254977 -4.283193152708751 0.23371563030049575 -4.198046414898376 Q 0.21605943882750528 -4.113878375223751 0.24220144054437823 -4.036360017744797 Q 0.2683434422612512 -3.958841660265842 0.33049487367888863 -3.9044224580230793 Q 0.39264630509652615 -3.8500032557803165 0.480729137314156 -3.83152584609928 Q 0.5981729136043292 -3.806889299857898 0.6886295576574303 -3.8533069209370807 L 0.7381079546922059 -4.0891731716531785 M 1.3587750502677776 -3.43302649804049 L 1.3348891955455637 -3.393714083408604 L 0.9221088419107638 -3.644515557991848 L 1.2855892398574937 -4.242747954564022 L 1.6855503278514616 -3.9997353456510654 L 1.6616644731292478 -3.9604229310191794 L 1.30528888831411 -4.17695339665316 L 1.1619737599808277 -3.941078908861846 L 1.4807461655828575 -3.747395782527374 L 1.4573795685719966 -3.708937985604877 L 1.1386071629699666 -3.902621111939349 L 0.9895801998118072 -3.6573458293447576 L 1.3587750502677776 -3.43302649804049 M 1.7877574190805472 -2.8938357511381345 L 1.8596797199849182 -3.17217400332892 Q 1.8320675689435106 -3.197305042202522 1.812142299058944 -3.221053381513454 L 1.6835921707714159 -3.37426847384205 L 1.5081608900551737 -3.2270785769528305 L 1.4753806073418543 -3.266148425496622 L 2.011633430491939 -3.71607387450297 L 2.1729638414927868 -3.5237889336305823 Q 2.257806926162555 -3.422666972693709 2.258133507917692 -3.325039397980633 Q 2.2584600896728286 -3.2274118232675573 2.173425713430458 -3.1560665020679792 Q 2.109841450114091 -3.102718198828655 2.039241284270163 -3.098960994707255 Q 1.9686411184262351 -3.095203790585855 1.900244082134873 -3.140940487302585 L 1.8250369562839301 -2.8494033743628417 L 1.7877574190805472 -2.8938357511381345 M 1.8466156948328778 -3.249977160378148 Q 1.9186037666738935 -3.1641767086741344 1.9944467898700418 -3.1507944131883616 Q 2.07028981306619 -3.1374121177025893 2.140002680075701 -3.195902426073414 Q 2.209715547085212 -3.25439273444424 2.209713994591719 -3.3314073434323386 Q 2.2097124420982253 -3.4084219524204373 2.1377243702572097 -3.494222404124451 L 2.009174241969682 -3.6474374964530467 L 1.71806556654535 -3.4031922527067437 L 1.8466156948328778 -3.249977160378148 M 2.6776256342244835 -2.6359906971269513 L 2.691227018304839 -2.586837850300967 L 2.060914041359867 -2.4124201015058198 L 2.168391644975225 -2.0240162334495144 L 2.124057704700808 -2.0117483183966445 L 2.002978717005094 -2.449305033278934 L 2.6776256342244835 -2.6359906971269513 M 2.314419712777775 -1.4369303578740218 L 2.3281099491709565 -1.8426994762498523 L 2.134223039611731 -1.9382916637003589 L 2.136077628285684 -1.9932603866330452 L 2.824821782828731 -1.6478396437950047 L 2.823102073331065 -1.5968686461665138 L 2.112642371405731 -1.2986556150290989 L 2.114496960079684 -1.3536243379617852 L 2.314419712777775 -1.4369303578740218 M 2.358035935885241 -1.4544696019238592 L 2.768010633718199 -1.6247421691118087 L 2.370411100309619 -1.8212608985837848 L 2.358035935885241 -1.4544696019238592 M 2.1559169256292385 -0.5680323049009292 Q 2.0995466708642443 -0.5478420999061893 2.032588838511236 -0.574311869202246 Q 1.949821517963768 -0.6070314451376494 1.9290792825651468 -0.6851260010981528 Q 1.908337047166526 -0.7632205570586562 1.9553944148039601 -0.8822567034640039 L 2.0700967484202057 -1.172407310327039 L 2.721075674074451 -0.9150623310598212 L 2.6137260541515546 -0.6435111220726217 Q 2.5718155860994645 -0.537494554180359 2.5052271200617637 -0.4955365252616175 Q 2.4386386540240625 -0.4535784963428763 2.3586612431579694 -0.4851951652242773 Q 2.3028630495304627 -0.5072533063043245 2.2763148079520246 -0.5516204210301311 Q 2.2497665663735864 -0.5959875357559379 2.252879435257377 -0.652823352344708 Q 2.212287180394233 -0.588222509895669 2.1559169256292385 -0.5680323049009292 M 2.6614075788295724 -0.8838098366018085 L 2.4019459784616664 -0.9863801926240281 L 2.314081049826145 -0.7641173880077929 Q 2.2802585668367388 -0.6785601577789493 2.2950745316753083 -0.6194755812305616 Q 2.3098904965138773 -0.5603910046821738 2.37405841918551 -0.5350241424401195 Q 2.437296371963351 -0.5100249158827327 2.488508269583998 -0.5430073588197312 Q 2.539720167204645 -0.5759898017567296 2.5735426501940513 -0.6615470319855733 L 2.6614075788295724 -0.8838098366018085 M 1.972527308079285 -0.7093493179421115 Q 1.9862403658638517 -0.6474748317123484 2.0550581380044433 -0.6202697910469569 Q 2.123875910145035 -0.5930647503815653 2.175725729872789 -0.6290209208422728 Q 2.2275755496005423 -0.6649770913029803 2.2650743894366223 -0.7598340204697418 L 2.361027303134828 -1.002556162749396 L 2.0922660038290037 -1.1088028756182902 L 1.9963130901307984 -0.866080733338636 Q 1.9588142502947181 -0.7712238041718745 1.972527308079285 -0.7093493179421115" fill="#43161e" fill-rule="nonzero"></path></g><g transform="matrix(1,0,0,1,0,0)"><g transform="matrix(1,0,0,1,0,0)" clip-path="url(#SvgjsClipPath14914)"><g clip-path="url(#SvgjsClipPath14909d46334a4-9643-4413-91ea-21a5942d1a02)"><path d=" M -1.3975223958331278 -0.33847294537585526 L 1.3994906286873166 -0.33847294537585526 C 1.441183934330427 -0.33847294537585526 1.4749830297874555 -0.3046738499188262 1.4749830297874555 -0.26298054427571627 L 1.4749830297874555 -0.262992401100139 C 1.4749830297874555 -0.22129909545702864 1.441183934330427 -0.1875 1.3994906286873166 -0.1875 L -1.3975223958331278 -0.1875 C -1.439215701476238 -0.1875 -1.4730147969332668 -0.22129909545702864 -1.4730147969332668 -0.262992401100139 L -1.4730147969332668 -0.26298054427571627 C -1.4730147969332668 -0.3046738499188262 -1.439215701476238 -0.33847294537585526 -1.3975223958331278 -0.33847294537585526 Z" fill="#43161e" transform="matrix(1,0,0,1,0,0)" fill-rule="nonzero"></path></g><g clip-path="url(#SvgjsClipPath14909d46334a4-9643-4413-91ea-21a5942d1a02)"><path d=" M 1.4528819090633065 -1.3650368039042087 C 1.5050797734069077 -1.4888163630165479 1.464034934073502 -1.6322413810575147 1.354256843514233 -1.7096672625780953 L 1.3546955460178771 -1.71010596508174 L 1.3554662396053607 -1.7108885154936466 C 1.3569048676353312 -1.7123508571724624 1.3583118774668392 -1.7138013420268545 1.359687269099887 -1.7152399700568242 L 1.3606121014048678 -1.716212229659496 L 1.36070695600025 -1.7163189410793014 L 1.3611812289771636 -1.7168169277050604 C 1.3627621389002074 -1.7185164058723321 1.3643430488232506 -1.720223788589219 1.3659239587462944 -1.7219390758557216 L 1.3667420796314693 -1.722875764985125 C 1.3681569940125935 -1.7244566749081685 1.369556099294487 -1.7260375848312117 1.37093939547715 -1.7276184947542557 L 1.3722792166369295 -1.729219166051337 C 1.3734648990792127 -1.730594557684385 1.3746505815214949 -1.7319580924930102 1.3757295525439721 -1.7333453409504809 L 1.3776385012760475 -1.7357167058350462 C 1.3785396199321824 -1.7369023882773291 1.3794407385883174 -1.7379576456509607 1.380318143595607 -1.7390959007955518 C 1.3811955486028964 -1.7402341559401429 1.3819543853659568 -1.741206415542815 1.3827725062511318 -1.7422735297408694 L 1.3847288822808985 -1.7448583174650458 C 1.385712998707993 -1.7461744249759794 1.3866734014862416 -1.7475142461357591 1.3876338042644911 -1.7488422104711154 L 1.3889499117754247 -1.7506563046078083 C 1.390064453271171 -1.7522372145308516 1.3911671379424932 -1.7538181244538955 1.3922579657893936 -1.755399034376939 L 1.3929930889036086 -1.7564780053994162 C 1.3942261986435827 -1.7582881472613014 1.3954395470095187 -1.7601140982224166 1.3966331340014166 -1.7619558582827621 C 1.3967161317723766 -1.7620981401758358 1.3968109863677594 -1.7622285652444871 1.3968939841387185 -1.7623589903131378 C 1.4070198992777816 -1.7780029373156307 1.4157486135860045 -1.7945081425529976 1.4229789978689373 -1.8116833799120973 L 1.4229789978689378 -1.8117545208586348 C 1.4237694528304599 -1.8136278991174415 1.4245401464179435 -1.8155131342006707 1.4252910786313886 -1.8174102261083234 C 1.4253503627535031 -1.8175525080013972 1.4253977900511945 -1.8176829330700484 1.4254570741733086 -1.8178133581386993 C 1.425860206203685 -1.818844901863485 1.4262870518829058 -1.8198527319394258 1.4266427566155908 -1.8208842756642114 C 1.4328337131157918 -1.8369303830206076 1.4376762095251245 -1.8534646725623842 1.441119939235863 -1.8703153766829765 C 1.441285934777782 -1.8710979270948833 1.441451930319702 -1.8718804775067899 1.4416060690371983 -1.872686741567542 C 1.4417957782279638 -1.8736471443457914 1.4419617737698833 -1.8746194039484632 1.4421396261362256 -1.875579806726712 C 1.4423767626246815 -1.8767654891689949 1.4426020422887156 -1.8780697398555057 1.442815465128327 -1.87930284959548 C 1.4429458901969783 -1.8800616863585407 1.4430644584412065 -1.880808666297179 1.4431948835098574 -1.8815675030602397 C 1.4434201631738914 -1.8829784651665562 1.4436572996623473 -1.8844012840972957 1.4438588656775355 -1.8858122462036118 C 1.4439774339217637 -1.886535512493404 1.444072288517146 -1.8872587787831967 1.4441671431125296 -1.887982045072989 C 1.4442619977079123 -1.8887053113627812 1.4444279932498314 -1.8897249982631443 1.44454656149406 -1.8906024032704338 C 1.4446058456161741 -1.8910292489496556 1.4446414160894427 -1.8914679514533004 1.4447007002115573 -1.8918947971325217 C 1.4461418417457725 -1.903105409381774 1.4468744669393958 -1.9143957576359316 1.4468942127297804 -1.9256986035620016 C 1.4467697062957394 -1.9851443509686728 1.4272957173150127 -2.0429336942038496 1.3914161312553741 -2.0903306106729516 C 1.3847870854077646 -2.099075338448519 1.377611219656198 -2.107391739153977 1.36993156540121 -2.1152299419608895 C 1.3952312283365256 -2.153439289454279 1.402940872319948 -2.2006597796752514 1.3911078538203792 -2.244931744322193 C 1.352727313163689 -2.3883993198383986 1.2887123181048463 -2.5241718163041895 1.200865105956122 -2.6482771975379187 C 1.1151876926767748 -2.7693116612461357 1.009187682336702 -2.876046794700424 0.8858055673927652 -2.9655183917950754 C 0.7619966067696065 -3.055298266324721 0.6241254523809756 -3.12517053264844 0.4760218585154441 -3.173178814736466 C 0.32338895772039233 -3.2226573430529233 0.16321511659242316 -3.247746383531625 -0.000005928412211586576 -3.247746383531625 C -0.16322697341684655 -3.247746383531625 -0.3234008145448155 -3.2226573430529233 -0.47605742898871184 -3.173155101087621 C -0.6241610228542429 -3.125146818999595 -0.7620321772428743 -3.055274552675876 -0.8858411378660327 -2.9654946781462304 C -1.0092232528099696 -2.8760230810515783 -1.1152232631500423 -2.7692879475972907 -1.2009006764293892 -2.648253483889074 C -1.288747888578114 -2.5241481026553445 -1.3527628836369565 -2.388434890311668 -1.3911434242936471 -2.244908030673348 C -1.4029764427932157 -2.200636066026406 -1.3952667988097933 -2.1534155758054343 -1.3699671358744783 -2.1152062283120436 C -1.3776467901294662 -2.1073680255051315 -1.3848226558810328 -2.0990516247996736 -1.3914517017286407 -2.090306897024108 C -1.4273293709956971 -2.042922552133533 -1.4468035860614514 -1.9851450241269504 -1.4469297832030479 -1.9257104603864246 C -1.4469100543935913 -1.9143957937168605 -1.4461774321804288 -1.9030936110337973 -1.4447362706848255 -1.8918710834836847 C -1.4446769865627105 -1.8914560946288779 -1.444641416089442 -1.8910292489496563 -1.4445821319673278 -1.890614260094857 C -1.4444754205475223 -1.8897605687364134 -1.4443331386544485 -1.888918734202393 -1.4442145704102203 -1.8880650428439494 L -1.4438944361508042 -1.8857885325547663 C -1.443692870135616 -1.8844249977461411 -1.4434675904715821 -1.8830496061130935 -1.4432423108075485 -1.8816860713044685 L -1.4428510356015951 -1.879314706419903 C -1.4426494695864072 -1.87812902397762 -1.4424241899223735 -1.8769433415353376 -1.4422107670827626 -1.8757576590930547 C -1.4419973442431517 -1.8745719766507722 -1.4418313487012322 -1.8736827148190602 -1.441629782686044 -1.8726511710942741 L -1.4412029370068224 -1.8705762268202797 C -1.437754476906049 -1.8536480551607324 -1.4328960008461502 -1.837038016190238 -1.4266783270888592 -1.8209198461374803 C -1.4262751950584833 -1.8198645887638487 -1.4258364925548386 -1.81882118821464 -1.4254215037000397 -1.8177659308410083 C -1.42539886310086 -1.8177006127897595 -1.4253711113043244 -1.817637180111964 -1.42533850592908 -1.8175762216502431 C -1.4176742502577548 -1.7982912886277014 -1.4081434849333625 -1.7798016038983802 -1.3968821273142953 -1.762370847137561 L -1.3966449908258387 -1.762015142404876 C -1.395451403833941 -1.7601654777949152 -1.3942301509183896 -1.7583276700093768 -1.3929812320791852 -1.7565017190482617 L -1.3922698226138155 -1.7554583184990529 C -1.3911789947669155 -1.7538457903775482 -1.3900644532711697 -1.7522569759048894 -1.3889380549510013 -1.7507155887299215 L -1.387657517913336 -1.7489370650664977 C -1.3866852583106641 -1.747597243906718 -1.3857129987079924 -1.7462455659225158 -1.384717025456475 -1.7449176015871593 L -1.382784363075554 -1.7423683843362516 C -1.381966242190379 -1.741289413313774 -1.381148121305204 -1.74022229911572 -1.380318143595606 -1.7391551849176652 C -1.379488165886008 -1.738088070719611 -1.3785514767566047 -1.7369261019261735 -1.3776622149248927 -1.735811560430428 C -1.3770100895816373 -1.7350052963696758 -1.3763816778872273 -1.7342108891333468 -1.375729552543972 -1.7334401955458625 C -1.3745438701016892 -1.732064803912815 -1.3734530422547893 -1.7307012691041899 -1.372302930285775 -1.7293377342955647 C -1.3718405141332848 -1.7288041771965377 -1.3713899548052173 -1.7282469064486645 -1.370927538652727 -1.7277133493496375 C -1.3695600515692945 -1.726132439426594 -1.3681767553866313 -1.72455152950355 -1.3667776501047377 -1.7229706195805068 L -1.3659121019218714 -1.7219865031534118 C -1.3643865238461343 -1.7202949295357555 -1.3628372321215516 -1.718611260467714 -1.3612642267481232 -1.7169354959492877 C -1.361086374381781 -1.7167457867585225 -1.3609203788398612 -1.7165560775677573 -1.360742526473519 -1.7163782252014153 L -1.3606358150537132 -1.7162596569571869 C -1.3603393944431426 -1.7159395226977705 -1.3600429738325719 -1.7156312452627769 -1.3597346963975785 -1.7153229678277835 C -1.3583593047645306 -1.713864578423776 -1.3569364858337913 -1.7124061890197682 -1.3554899532542064 -1.7109359427913375 L -1.3547429733155683 -1.7101771060282764 L -1.3542924139875008 -1.7097265467002092 C -1.4232144968136677 -1.6612302397477459 -1.4671825259247948 -1.5847551520303484 -1.474415768238628 -1.500791913081664 C -1.481649010552461 -1.416828674132979 -1.4514080286943116 -1.3339606486855518 -1.3917955496369023 -1.274391381191696 C -1.388523066096202 -1.2711188976509962 -1.3851833938837725 -1.267937316430871 -1.3817765329996134 -1.2648466375313205 C -1.3772156078716327 -1.2606967489833307 -1.372524257675001 -1.2567089037024535 -1.3677024824097181 -1.2528831016886879 C -1.4778995342609278 -1.1421369341433354 -1.4776289921765615 -0.9630805122667936 -1.3670977843641539 -0.8526678501205898 C -1.3654615425938037 -0.8510316083502389 -1.3638055394494157 -0.8494190802287349 -1.3621297749309895 -0.8478302657560759 C -1.3905459539154446 -0.8146456413547503 -1.404163223009286 -0.7712879824155037 -1.3998226197711563 -0.7278154889482225 C -1.3705387230939792 -0.4371113525888193 -1.1258464712706853 -0.21582805605943278 -0.833671110405595 -0.2158259535461342 L 0.8336592535811711 -0.2158259535461342 C 1.1258346144462612 -0.21582805605943278 1.3705268662695556 -0.43711135258881884 1.399810762946733 -0.7278154889482225 C 1.4041513661848621 -0.7712879824155028 1.3905340970910216 -0.8146456413547489 1.3621179181065663 -0.847830265756075 C 1.363785778075377 -0.8494111756791187 1.365441781219765 -0.8510237038006236 1.3670859275397307 -0.8526678501205893 C 1.4775841841475996 -0.9630748457558274 1.477844104659392 -1.1420964243783067 1.3676669119364493 -1.2528238175665745 C 1.4049909701231704 -1.2825309165156824 1.4342861035570027 -1.3211073938800615 1.4528819090633056 -1.3650368039042078 Z" fill="#43161e" transform="matrix(1,0,0,1,0,0)" fill-rule="nonzero"></path></g><g clip-path="url(#SvgjsClipPath14909d46334a4-9643-4413-91ea-21a5942d1a02)"><path d=" M -1.1667174516183791 -1.176359156863764 L 1.1667055947939562 -1.176359156863764 C 1.2348083714059146 -1.176359156863764 1.2900165687913563 -1.1211509594783235 1.2900165687913563 -1.0530481828663643 L 1.2900165687913563 -1.0530481828663643 C 1.2900165687913563 -0.984945406254405 1.2348083714059146 -0.9297372088689646 1.1667055947939562 -0.9297372088689646 L -1.1667174516183791 -0.9297372088689646 C -1.2348202282303384 -0.9297372088689646 -1.290028425615779 -0.984945406254405 -1.290028425615779 -1.0530481828663643 L -1.290028425615779 -1.0530481828663643 C -1.290028425615779 -1.1211509594783235 -1.2348202282303384 -1.176359156863764 -1.1667174516183791 -1.176359156863764 Z" fill="#c7ea1a" transform="matrix(1,0,0,1,0,0)" fill-rule="nonzero"></path></g><g clip-path="url(#SvgjsClipPath14909d46334a4-9643-4413-91ea-21a5942d1a02)"><path d=" M -1.290028425615779 -1.0530481828663638 L -1.290028425615779 -1.0530481828663638 C -1.290028425615779 -0.984945412440819 -1.2348202220439246 -0.9297372088689646 -1.1667174516183791 -0.9297372088689646 L 1.1667055947939562 -0.9297372088689646 C 1.2348083652195014 -0.9297372088689646 1.2900165687913558 -0.984945412440819 1.2900165687913558 -1.0530481828663638 L -1.290028425615779 -1.0530481828663638 Z" fill="#7ca800" transform="matrix(1,0,0,1,0,0)" fill-rule="nonzero"></path></g><g clip-path="url(#SvgjsClipPath14909d46334a4-9643-4413-91ea-21a5942d1a02)"><path d=" M -1.2405498972993223 -0.7437154904992331 C -1.219942736452449 -0.5371696090535885 -1.0456474174368935 -0.3758930832542968 -0.8336711104055942 -0.3758930832542968 L 0.8336592535811711 -0.3758930832542968 C 1.045635560612471 -0.3758930832542968 1.2199308796280266 -0.537145895404743 1.2405380404748994 -0.7437154904992336 Z" fill="#da4f0c" transform="matrix(1,0,0,1,0,0)" fill-rule="nonzero"></path></g><g clip-path="url(#SvgjsClipPath14909d46334a4-9643-4413-91ea-21a5942d1a02)"><path d=" M 1.1573861307976139 -0.7437154904992331 L -1.1573979876220373 -0.7437154904992331 C -1.1070301974738688 -0.6027378481118211 -0.9723366720305552 -0.5018362722735645 -0.814048065985816 -0.5018362722735645 L 0.8140362091613929 -0.5018362722735645 C 0.9723248152061315 -0.5018362722735645 1.1070183406494452 -0.6027378481118211 1.1573861307976139 -0.7437154904992331 Z" fill="#ff9402" transform="matrix(1,0,0,1,0,0)" fill-rule="nonzero"></path></g><g clip-path="url(#SvgjsClipPath14909d46334a4-9643-4413-91ea-21a5942d1a02)"><path d=" M -1.1898975433650059 -1.601627878437297 L 1.1898975433650052 -1.601627878437297 C 1.259165925192054 -1.601627878437297 1.3153190321096684 -1.5454747715196824 1.3153190321096684 -1.4762063896926338 L 1.3153190321096684 -1.4762063896926338 C 1.3153190321096684 -1.4069380078655855 1.259165925192054 -1.3507849009479709 1.1898975433650052 -1.3507849009479709 L -1.1898975433650059 -1.3507849009479709 C -1.2591659251920544 -1.3507849009479709 -1.3153190321096688 -1.4069380078655855 -1.3153190321096688 -1.4762063896926338 L -1.3153190321096688 -1.4762063896926338 C -1.3153190321096688 -1.5454747715196824 -1.2591659251920544 -1.601627878437297 -1.1898975433650059 -1.601627878437297 Z" fill="#ff5733" transform="matrix(1,0,0,1,0,0)" fill-rule="nonzero"></path></g><g clip-path="url(#SvgjsClipPath14909d46334a4-9643-4413-91ea-21a5942d1a02)"><path d=" M -1.315319032109669 -1.4762063896926334 L -1.315319032109669 -1.4762063896926334 C -1.3153221769292807 -1.4429436330439662 -1.3021108026871868 -1.4110421563079658 -1.278591593630139 -1.3875207236327476 C -1.2550723845730916 -1.3639992909575296 -1.2231721569869263 -1.3507849007993296 -1.189909400189512 -1.3507849009479709 L 1.1898975433650056 -1.3507849009479709 C 1.2231603001624194 -1.3507849007993076 1.2550605277485931 -1.3639992909574865 1.278579736805657 -1.387520723632689 C 1.3020989458627197 -1.4110421563078908 1.3153103201048348 -1.442943633043883 1.3153071752852448 -1.4762063896926338 L -1.315319032109669 -1.4762063896926338 Z" fill="#fd0e18" transform="matrix(1,0,0,1,0,0)" fill-rule="nonzero"></path></g><g clip-path="url(#SvgjsClipPath14909d46334a4-9643-4413-91ea-21a5942d1a02)"><path d=" M 1.219397322528999 -2.0217507382113222 L -1.219409179353422 -2.0217507382113222 C -1.248399115067234 -2.0217507382113222 -1.2868626534948844 -1.9784021881214677 -1.2868626534948844 -1.9257104603864246 C -1.2868626534948844 -1.8730187326513819 -1.2420794276498672 -1.7660346058842145 -1.080293058400394 -1.7660346058842145 C -0.8252409082409643 -1.7660346058842145 -0.8025825167689421 -1.9309748904301598 -0.6982424618480654 -1.9309748904301598 C -0.6213035281683414 -1.9309748904301598 -0.5525339465159455 -1.7660346058842145 -0.36045339086614936 -1.7660346058842145 C -0.13043099706330752 -1.7660346058842145 -0.11383144287134983 -1.9308444653615087 -0.000005928412211586576 -1.9308444653615087 C 0.11381958604692688 -1.9308444653615087 0.13041914023888412 -1.7660346058842145 0.36044153404172663 -1.7660346058842145 C 0.5525220896915224 -1.7660346058842145 0.6212916713439185 -1.9309748904301598 0.698230605023642 -1.9309748904301598 C 0.8025706599445193 -1.9309748904301598 0.8252290514165415 -1.7660346058842145 1.0802812015759704 -1.7660346058842145 C 1.2420675708254434 -1.7660346058842145 1.2868507966704605 -1.8730187326513819 1.2868507966704605 -1.9257104603864246 C 1.2868507966704605 -1.9784021881214677 1.2483872582428104 -2.0217507382113222 1.219397322528999 -2.0217507382113222 Z" fill="#c7ea1a" transform="matrix(1,0,0,1,0,0)" fill-rule="nonzero"></path></g><g clip-path="url(#SvgjsClipPath14909d46334a4-9643-4413-91ea-21a5942d1a02)"><path d=" M -0.06269295913569728 -1.9114822710790322 L -0.6485742243408433 -1.9114822710790322 C -0.586136186930237 -1.8678373003786064 -0.5113433384710446 -1.7660346058842145 -0.36045339086614936 -1.7660346058842145 C -0.17958939112034789 -1.7660346058842145 -0.1306681335517641 -1.8679321549739893 -0.06269295913569728 -1.9114822710790322 Z" fill="#7ca800" transform="matrix(1,0,0,1,0,0)" fill-rule="nonzero"></path></g><g clip-path="url(#SvgjsClipPath14909d46334a4-9643-4413-91ea-21a5942d1a02)"><path d=" M -1.2858785370677897 -1.9114822710790322 C -1.2785747332233284 -1.8559093350092426 -1.22858636145669 -1.7660346058842145 -1.080293058400394 -1.7660346058842145 C -0.8799127256546192 -1.7660346058842145 -0.8229999684250502 -1.8678373003786064 -0.7571827360539379 -1.9114822710790322 Z" fill="#7ca800" transform="matrix(1,0,0,1,0,0)" fill-rule="nonzero"></path></g><g clip-path="url(#SvgjsClipPath14909d46334a4-9643-4413-91ea-21a5942d1a02)"><path d=" M 0.7571708792295149 -1.9114822710790322 C 0.8229643979517807 -1.8678373003786064 0.8799127256546191 -1.7660346058842145 1.0802812015759704 -1.7660346058842145 C 1.2285745046322671 -1.7660346058842145 1.2785628763989045 -1.8559093350092426 1.285866680243366 -1.9114822710790322 Z" fill="#7ca800" transform="matrix(1,0,0,1,0,0)" fill-rule="nonzero"></path></g><g clip-path="url(#SvgjsClipPath14909d46334a4-9643-4413-91ea-21a5942d1a02)"><path d=" M 0.0626811023112741 -1.9114822710790322 C 0.1306562767273407 -1.8679321549739893 0.17957753429592493 -1.7660346058842145 0.36044153404172663 -1.7660346058842145 C 0.5113551952954674 -1.7660346058842145 0.5861480437546596 -1.8678373003786064 0.64856236751642 -1.9114822710790322 Z" fill="#7ca800" transform="matrix(1,0,0,1,0,0)" fill-rule="nonzero"></path></g><g clip-path="url(#SvgjsClipPath14909d46334a4-9643-4413-91ea-21a5942d1a02)"><path d=" M 1.2364948633467154 -2.203551427086528 C 1.100805364651884 -2.7109997987346732 0.5986807071695872 -3.0876792538234614 -0.000005928412211586576 -3.0876792538234614 C -0.5986925639940104 -3.0876792538234614 -1.1008172214763075 -2.7109997987346732 -1.2365067201711384 -2.203551427086528 Z" fill="#ffeec9" transform="matrix(1,0,0,1,0,0)" fill-rule="nonzero"></path></g><g clip-path="url(#SvgjsClipPath14909d46334a4-9643-4413-91ea-21a5942d1a02)"><path d=" M 1.1196102881864882 -2.203551427086528 C 0.9775181043033299 -2.667947669255389 0.5299941232881515 -3.0070528477482386 -0.000005928412211586576 -3.0070528477482386 C -0.5300059801125743 -3.0070528477482386 -0.9775299611277531 -2.667947669255389 -1.119622145010911 -2.203551427086528 Z" fill="#ff9402" transform="matrix(1,0,0,1,0,0)" fill-rule="nonzero"></path></g><g clip-path="url(#SvgjsClipPath14909d46334a4-9643-4413-91ea-21a5942d1a02)"><path d=" M 0.0737079490245034 -2.4432608464428194 C 0.0737079490245034 -2.4025497923854586 0.04070512564514894 -2.3695469690061044 -0.000005928412211586576 -2.3695469690061044 C -0.04071698246957234 -2.3695469690061044 -0.07371980584892657 -2.4025497923854586 -0.07371980584892657 -2.4432608464428194 C -0.07371980584892657 -2.4839719005001797 -0.04071698246957234 -2.5169747238795344 -0.000005928412211586576 -2.5169747238795344 C 0.04070512564514894 -2.5169747238795344 0.0737079490245034 -2.4839719005001797 0.0737079490245034 -2.4432608464428194 Z" fill="#ffeec9" transform="matrix(1,0,0,1,0,0)" fill-rule="nonzero"></path></g><g clip-path="url(#SvgjsClipPath14909d46334a4-9643-4413-91ea-21a5942d1a02)"><path d=" M 0.0737079490245034 -2.808451038665888 C 0.0737079490245034 -2.7677399846085273 0.04070512564514894 -2.734737161229173 -0.000005928412211586576 -2.734737161229173 C -0.04071698246957234 -2.734737161229173 -0.07371980584892657 -2.7677399846085273 -0.07371980584892657 -2.808451038665888 C -0.07371980584892657 -2.849162092723249 -0.04071698246957234 -2.882164916102603 -0.000005928412211586576 -2.882164916102603 C 0.04070512564514894 -2.882164916102603 0.0737079490245034 -2.849162092723249 0.0737079490245034 -2.808451038665888 Z" fill="#ffeec9" transform="matrix(1,0,0,1,0,0)" fill-rule="nonzero"></path></g><g clip-path="url(#SvgjsClipPath14909d46334a4-9643-4413-91ea-21a5942d1a02)"><path d=" M -0.6119129232254625 -2.565089717387366 C -0.6119129232254625 -2.523671442188266 -0.6454890625007427 -2.4900953029129855 -0.6869073376998428 -2.4900953029129855 C -0.728325612898943 -2.4900953029129855 -0.761901752174223 -2.523671442188266 -0.761901752174223 -2.565089717387366 C -0.761901752174223 -2.606507992586466 -0.728325612898943 -2.640084131861746 -0.6869073376998428 -2.640084131861746 C -0.6454890625007427 -2.640084131861746 -0.6119129232254625 -2.606507992586466 -0.6119129232254625 -2.565089717387366 Z" fill="#ffeec9" transform="matrix(1,0,0,1,0,0)" fill-rule="nonzero"></path></g><g clip-path="url(#SvgjsClipPath14909d46334a4-9643-4413-91ea-21a5942d1a02)"><path d=" M -0.2603225086153764 -2.6700581840026523 C -0.2603225086153764 -2.625673509014589 -0.29630338956523383 -2.5896926280647317 -0.34068806455329703 -2.5896926280647317 C -0.38507273954136045 -2.5896926280647317 -0.42105362049121786 -2.625673509014589 -0.42105362049121786 -2.6700581840026523 C -0.42105362049121786 -2.714442858990716 -0.38507273954136045 -2.750423739940573 -0.34068806455329703 -2.750423739940573 C -0.29630338956523383 -2.750423739940573 -0.2603225086153764 -2.714442858990716 -0.2603225086153764 -2.6700581840026523 Z" fill="#ffeec9" transform="matrix(1,0,0,1,0,0)" fill-rule="nonzero"></path></g><g clip-path="url(#SvgjsClipPath14909d46334a4-9643-4413-91ea-21a5942d1a02)"><path d=" M 0.7619017521742228 -2.565089717387366 C 0.7619017521742228 -2.523671442188266 0.728325612898943 -2.4900953029129855 0.6869073376998425 -2.4900953029129855 C 0.6454890625007423 -2.4900953029129855 0.6119129232254625 -2.523671442188266 0.6119129232254625 -2.565089717387366 C 0.6119129232254625 -2.606507992586466 0.6454890625007423 -2.640084131861746 0.6869073376998425 -2.640084131861746 C 0.728325612898943 -2.640084131861746 0.7619017521742228 -2.606507992586466 0.7619017521742228 -2.565089717387366 Z" fill="#ffeec9" transform="matrix(1,0,0,1,0,0)" fill-rule="nonzero"></path></g><g clip-path="url(#SvgjsClipPath14909d46334a4-9643-4413-91ea-21a5942d1a02)"><path d=" M 0.42105362049121764 -2.6700581840026523 C 0.42105362049121764 -2.625673509014589 0.38507273954136023 -2.5896926280647317 0.3406880645532968 -2.5896926280647317 C 0.2963033895652336 -2.5896926280647317 0.260322508615376 -2.625673509014589 0.260322508615376 -2.6700581840026523 C 0.260322508615376 -2.714442858990716 0.2963033895652336 -2.750423739940573 0.3406880645532968 -2.750423739940573 C 0.38507273954136023 -2.750423739940573 0.42105362049121764 -2.714442858990716 0.42105362049121764 -2.6700581840026523 Z" fill="#ffeec9" transform="matrix(1,0,0,1,0,0)" fill-rule="nonzero"></path></g><g clip-path="url(#SvgjsClipPath14909d46334a4-9643-4413-91ea-21a5942d1a02)"><path d=" M 0.46439031375664985 -1.0637193248469083 C 0.3758894244486941 -1.0635575520521625 0.29097378258180706 -1.0986759305729898 0.22843950774239463 -1.161300989846774 L -0.2525562886184247 -1.6423323566808616 C -0.28748649336807275 -1.6772625614305097 -0.08852897955303751 -1.723753169992414 -0.03913344900754012 -1.723753169992414 L 0.9679022196964171 -1.723753169992414 C 1.017297750241914 -1.723753169992414 1.2255391575800232 -1.686546454953583 1.1906208096547983 -1.651616250203935 L 0.7003292629464823 -1.1613365603200423 C 0.6378015015045082 -1.0987047069480957 0.5528914375269296 -1.0635740693920677 0.46439031375664985 -1.0637193248469083 Z M 0.2557102039148964 -1.4794670164089108 L 0.40115786910971396 -1.334054921687362 C 0.4361004589253388 -1.2991927799341079 0.4926683117635382 -1.2991927799341072 0.5276109015791626 -1.334054921687362 L 0.6730704235984035 -1.4795144437066021 Z" fill="#43161e" transform="matrix(1,0,0,1,0,0)" fill-rule="nonzero"></path></g><g clip-path="url(#SvgjsClipPath14909d46334a4-9643-4413-91ea-21a5942d1a02)"><path d=" M -0.03913344900754012 -1.6016278784372968 L 0.3148046168382659 -1.2476898125914904 C 0.39707912150826163 -1.1654153079214944 0.5317015060050383 -1.1654153079214944 0.6139760106750347 -1.2476898125914904 L 0.9679022196964175 -1.6016278784372968 Z" fill="#ffca00" transform="matrix(1,0,0,1,0,0)" fill-rule="nonzero"></path></g></g></g></g><defs><clipPath id="SvgjsClipPath14914"><path d=" M -1.4753861618178319 -3.247746383531625 h 2.9507723236356638 v 3.060246383531625 h -2.9507723236356638 Z"></path></clipPath><clipPath id="SvgjsClipPath14909d46334a4-9643-4413-91ea-21a5942d1a02"><path d=" M -1.475386161817832 -3.247746383531625 L 1.4753861618178319 -3.247746383531625 L 1.4753861618178319 -0.1875 L -1.4753861618178323 -0.1875 Z"></path></clipPath></defs></svg>